<svg width="582" height="472" viewBox="0 0 582 472" fill="none" xmlns="http://www.w3.org/2000/svg">
<circle cx="284.764" cy="180.016" r="144.5" stroke="#4F9CF9" stroke-width="2" stroke-dasharray="15 15"/>
<circle cx="181.875" cy="325.516" r="144.5" stroke="#4F9CF9" stroke-width="2" stroke-dasharray="15 15"/>
<circle cx="400.125" cy="325.516" r="144.5" stroke="#4F9CF9" stroke-width="2" stroke-dasharray="15 15"/>
<circle cx="429.226" cy="183.134" r="36.375" fill="white"/>
<g clip-path="url(#clip0_70_15190)">
<path d="M423.38 184.413C420.861 184.413 418.813 186.461 418.813 188.98V200.392C418.813 202.91 420.861 204.959 423.38 204.959C425.898 204.959 427.947 202.91 427.947 200.392V188.98C427.947 186.461 425.898 184.413 423.38 184.413Z" fill="#FF4340"/>
<path d="M416.257 184.413H411.836C409.398 184.413 407.414 186.396 407.414 188.834C407.414 191.272 409.398 193.255 411.836 193.255C414.273 193.255 416.257 191.272 416.257 188.834V184.413Z" fill="#FF4340"/>
<path d="M407.401 177.288C407.401 179.806 409.449 181.855 411.968 181.855H423.38C425.898 181.855 427.947 179.806 427.947 177.288C427.947 174.77 425.898 172.721 423.38 172.721H411.968C409.449 172.721 407.401 174.77 407.401 177.288V177.288Z" fill="#36C6FF"/>
<path d="M423.527 170.163H427.948V165.742C427.948 163.304 425.965 161.321 423.527 161.321C421.089 161.321 419.106 163.304 419.106 165.742C419.106 168.18 421.089 170.163 423.527 170.163Z" fill="#36C6FF"/>
<path d="M435.071 181.855C437.589 181.855 439.638 179.806 439.638 177.288V165.876C439.638 163.357 437.589 161.309 435.071 161.309C432.553 161.309 430.504 163.357 430.504 165.876V177.288C430.504 179.806 432.553 181.855 435.071 181.855Z" fill="#0DC46E"/>
<path d="M442.196 181.855H446.617C449.055 181.855 451.038 179.872 451.038 177.434C451.038 174.996 449.055 173.013 446.617 173.013C444.179 173.013 442.196 174.996 442.196 177.434V181.855Z" fill="#0DC46E"/>
<path d="M451.05 188.98C451.05 186.461 449.002 184.413 446.483 184.413H435.071C432.553 184.413 430.504 186.461 430.504 188.98C430.504 191.498 432.553 193.546 435.071 193.546H446.483C449.002 193.547 451.05 191.498 451.05 188.98Z" fill="#FDCB02"/>
<path d="M434.925 196.104H430.504V200.525C430.504 202.963 432.488 204.947 434.925 204.947C437.363 204.947 439.347 202.963 439.347 200.525C439.347 198.087 437.363 196.104 434.925 196.104Z" fill="#FDCB02"/>
</g>
<circle cx="36.375" cy="314.084" r="36.375" fill="white"/>
<g clip-path="url(#clip1_70_15190)">
<path d="M56.835 301.808H37.7381C36.9851 301.808 36.374 302.419 36.374 303.172C36.374 303.925 36.9851 304.536 37.7381 304.536H52.8601L44.4793 311.053L38.4692 307.231L37.0069 309.534L43.8273 313.872C44.0482 314.013 44.3047 314.084 44.5584 314.084C44.853 314.084 45.1504 313.989 45.3959 313.798L55.4709 305.96V323.633H37.7381C36.9851 323.633 36.374 324.244 36.374 324.997C36.374 325.75 36.9851 326.361 37.7381 326.361H56.835C57.5879 326.361 58.199 325.75 58.199 324.997V303.172C58.199 302.419 57.5879 301.808 56.835 301.808Z" fill="#1976D2"/>
<path d="M38.6091 293.937C38.2981 293.678 37.8807 293.566 37.4879 293.648L15.6629 297.74C15.0163 297.86 14.5498 298.422 14.5498 299.08V329.089C14.5498 329.744 15.0163 330.309 15.6629 330.429L37.4879 334.521C37.5697 334.537 37.6543 334.546 37.7389 334.546C38.0553 334.546 38.3636 334.436 38.6091 334.232C38.9229 333.973 39.1029 333.585 39.1029 333.181V294.988C39.1029 294.581 38.9229 294.197 38.6091 293.937Z" fill="#2196F3"/>
<path d="M26.8271 323.633C23.0678 323.633 20.0068 319.961 20.0068 315.448C20.0068 310.936 23.0678 307.264 26.8271 307.264C30.5865 307.264 33.6475 310.936 33.6475 315.448C33.6475 319.961 30.5865 323.633 26.8271 323.633ZM26.8271 309.992C24.571 309.992 22.735 312.439 22.735 315.448C22.735 318.457 24.571 320.905 26.8271 320.905C29.0833 320.905 30.9193 318.457 30.9193 315.448C30.9193 312.439 29.0833 309.992 26.8271 309.992Z" fill="#FAFAFA"/>
</g>
<circle cx="545.625" cy="314.084" r="36.375" fill="white"/>
<g clip-path="url(#clip2_70_15190)">
<path d="M545.586 306.048L536.527 321.761H536.501L541.748 328.159L529.976 333.098C529.745 332.97 529.566 332.791 529.464 332.612L523.936 322.375C523.655 321.812 523.885 321.377 523.962 321.121L538.779 295.53C538.881 295.376 539.035 295.223 539.24 295.095H539.265L546.866 297.449L545.586 306.048Z" fill="#59C36A"/>
<path d="M567.45 321.761L557.187 328.159L554.756 321.761L545.586 306.048L539.265 295.095C539.444 294.967 539.674 294.89 539.879 294.89H551.378C551.634 294.967 552.146 294.941 552.478 295.53L567.296 321.121C567.398 321.3 567.45 321.531 567.45 321.761Z" fill="#FFDA2D"/>
<path d="M552.48 295.531C552.147 294.942 551.635 294.968 551.379 294.891H545.587V306.049L554.757 321.762L557.189 328.16L567.451 321.762C567.451 321.532 567.399 321.301 567.297 321.122L552.48 295.531Z" fill="#FDBF00"/>
<path d="M567.45 321.761C567.45 321.991 567.399 322.222 567.322 322.375L561.794 332.612C561.589 332.945 561.103 333.277 560.668 333.277H530.59C530.385 333.277 530.155 333.2 529.976 333.098L536.501 321.761H567.45Z" fill="#4086F4"/>
<path d="M545.587 333.277H560.669C561.104 333.277 561.59 332.945 561.795 332.612L567.323 322.375C567.4 322.222 567.451 321.991 567.451 321.761H545.587V333.277H545.587Z" fill="#4175DF"/>
</g>
<circle cx="139.264" cy="183.134" r="36.375" fill="white"/>
<g clip-path="url(#clip3_70_15190)">
<path d="M126.013 193.968V190.46L131.937 193.89L139.264 187.031V202.62L126.013 193.968Z" fill="#0093EB"/>
<path d="M118.921 184.693L126.638 177.678L139.265 185.472L131.938 192.332L118.921 184.693Z" fill="#0093EB"/>
<path d="M126.636 177.677L117.438 170.662L130.689 163.647L140.043 169.883L126.636 177.677Z" fill="#0093EB"/>
<path d="M152.514 194.046L139.263 202.62V187.031L146.824 193.578L152.514 189.993V194.046Z" fill="#0093EB"/>
<path d="M146.824 192.019L139.263 185.472L151.968 177.365L159.607 183.913L146.824 192.019Z" fill="#0093EB"/>
<path d="M151.968 177.365L140.042 169.883L149.396 163.647L161.088 170.662L151.968 177.365Z" fill="#0093EB"/>
</g>
<circle cx="291" cy="416.973" r="36.375" fill="white"/>
<g clip-path="url(#clip4_70_15190)">
<path d="M308.938 408.107H273.131C272.425 408.107 271.853 407.535 271.853 406.828V398.984C271.853 396.869 273.573 395.148 275.689 395.148H306.38C308.496 395.148 310.217 396.869 310.217 398.984V406.828C310.217 407.535 309.645 408.107 308.938 408.107Z" fill="#E3E7EA"/>
<path d="M306.38 395.148H291.034V408.107H308.938C309.644 408.107 310.216 407.535 310.216 406.828V398.984C310.216 396.869 308.495 395.148 306.38 395.148Z" fill="#BABAC0"/>
<path d="M271.803 422.173C271.804 422.171 271.804 422.17 271.804 422.17L269.26 410.05C269.081 408.899 269.388 407.748 270.104 406.904C270.846 406.035 271.92 405.549 273.045 405.549H308.954C310.079 405.549 311.154 406.035 311.895 406.904C312.612 407.749 312.918 408.899 312.739 409.999L310.195 422.177L312.739 434.297C312.918 435.447 312.612 436.599 311.895 437.442C311.154 438.312 310.08 438.798 308.954 438.798H273.045C271.92 438.798 270.846 438.312 270.104 437.442C269.388 436.598 269.081 435.447 269.26 434.348C269.26 434.348 271.759 422.384 271.803 422.173Z" fill="#4086F4"/>
<path d="M271.804 422.17C271.804 422.17 271.804 422.171 271.803 422.173H310.196L312.739 409.999C312.918 408.899 312.612 407.749 311.895 406.904C311.154 406.035 310.08 405.549 308.954 405.549H273.045C271.92 405.549 270.846 406.035 270.104 406.904C269.388 407.749 269.081 408.899 269.26 410.05L271.804 422.17Z" fill="#4175DF"/>
<path d="M278.211 402.821C278.918 402.821 279.49 402.248 279.49 401.542C279.49 400.836 278.918 400.263 278.211 400.263C277.505 400.263 276.933 400.836 276.933 401.542C276.933 402.248 277.505 402.821 278.211 402.821Z" fill="#FFF5F5"/>
<path d="M303.788 402.821C304.494 402.821 305.066 402.248 305.066 401.542C305.066 400.836 304.494 400.263 303.788 400.263C303.081 400.263 302.509 400.836 302.509 401.542C302.509 402.248 303.081 402.821 303.788 402.821Z" fill="#E3E7EA"/>
<path d="M285.884 431.125C283.721 431.125 281.782 429.755 281.061 427.714C280.825 427.049 281.174 426.318 281.841 426.083C282.504 425.846 283.237 426.197 283.472 426.863C283.832 427.882 284.803 428.567 285.884 428.567C287.294 428.567 288.442 427.42 288.442 426.01C288.442 424.6 287.294 423.452 285.884 423.452H284.294C283.589 423.452 283.016 422.88 283.016 422.173C283.016 421.467 283.589 420.895 284.294 420.895H285.884C287.294 420.895 288.442 419.747 288.442 418.337C288.442 416.927 287.294 415.779 285.884 415.779C284.803 415.779 283.832 416.465 283.471 417.484C283.237 418.151 282.502 418.501 281.84 418.263C281.174 418.028 280.825 417.298 281.061 416.632C281.782 414.592 283.721 413.222 285.884 413.222C288.705 413.222 290.999 415.516 290.999 418.337C290.999 419.863 290.328 421.235 289.264 422.173C290.328 423.111 290.999 424.484 290.999 426.01C290.999 428.831 288.705 431.125 285.884 431.125Z" fill="#FFF5F5"/>
<path d="M281.84 418.263C282.502 418.501 283.237 418.151 283.471 417.484C283.832 416.465 284.803 415.779 285.884 415.779C287.294 415.779 288.442 416.927 288.442 418.337C288.442 419.747 287.294 420.895 285.884 420.895H284.294C283.589 420.895 283.016 421.466 283.016 422.173H289.264C290.328 421.235 290.999 419.863 290.999 418.337C290.999 415.516 288.705 413.222 285.884 413.222C283.721 413.222 281.782 414.592 281.061 416.632C280.825 417.298 281.174 418.028 281.84 418.263Z" fill="#E3E7EA"/>
<path d="M298.673 431.125C297.966 431.125 297.395 430.553 297.395 429.846V416.889L295.546 418.122C294.957 418.512 294.164 418.354 293.773 417.767C293.381 417.179 293.539 416.386 294.128 415.994L297.964 413.436C298.356 413.175 298.862 413.15 299.277 413.373C299.692 413.595 299.952 414.028 299.952 414.5V429.846C299.952 430.553 299.38 431.125 298.673 431.125Z" fill="#FFF5F5"/>
<path d="M295.546 418.122L297.395 416.89V422.173H299.952V414.501C299.952 414.029 299.692 413.595 299.277 413.373C298.862 413.151 298.356 413.176 297.964 413.437L294.128 415.994C293.539 416.387 293.381 417.179 293.773 417.768C294.164 418.355 294.957 418.512 295.546 418.122Z" fill="#E3E7EA"/>
</g>
<circle cx="287.882" cy="36.5947" r="36.375" fill="white"/>
<g clip-path="url(#clip5_70_15190)">
<path d="M304.252 20.2258H271.514V52.9633H304.252V20.2258Z" fill="#ECEFF1"/>
<path d="M287.881 40.0375L304.25 52.9634V27.4445L287.881 40.0375Z" fill="#CFD8DC"/>
<path d="M305.615 20.226H304.251L287.882 33.1518L271.513 20.226H270.149C267.89 20.226 266.057 22.0593 266.057 24.3181V48.8713C266.057 51.1302 267.89 52.9635 270.149 52.9635H271.513V27.4446L287.882 40.0349L304.251 27.4418V52.9635H305.615C307.874 52.9635 309.707 51.1302 309.707 48.8713V24.3181C309.707 22.0593 307.874 20.226 305.615 20.226Z" fill="#F44336"/>
</g>
<circle cx="289.96" cy="278.748" r="51.9643" fill="white"/>
<path d="M265 266.401V275.482C265 278.248 268.454 279.723 270.565 277.787L280.641 268.706C282.848 266.723 281.408 263.22 278.386 263.22H268.31C266.487 263.22 265 264.649 265 266.401Z" fill="#5986EF"/>
<path d="M312.69 263.22H302.614C299.64 263.22 298.153 266.723 300.36 268.706L310.435 277.787C312.546 279.677 316 278.248 316 275.482V266.401C316 264.649 314.513 263.22 312.69 263.22Z" fill="#5986EF"/>
<path d="M292.779 285.393L310.435 301.344C312.546 303.234 316 301.805 316 299.039V289.865C316 288.989 315.616 288.159 314.944 287.56L292.779 267.507C291.484 266.354 289.516 266.354 288.221 267.507L266.056 287.56C265.384 288.159 265 288.989 265 289.865V299.039C265 301.805 268.454 303.28 270.565 301.344L288.221 285.393C289.516 284.241 291.484 284.241 292.779 285.393Z" fill="#5986EF"/>
<defs>
<clipPath id="clip0_70_15190">
<rect width="43.65" height="43.65" fill="white" transform="translate(407.401 161.309)"/>
</clipPath>
<clipPath id="clip1_70_15190">
<rect width="43.65" height="43.65" fill="white" transform="translate(14.5498 292.259)"/>
</clipPath>
<clipPath id="clip2_70_15190">
<rect width="43.65" height="43.65" fill="white" transform="translate(523.8 292.259)"/>
</clipPath>
<clipPath id="clip3_70_15190">
<rect width="43.65" height="43.65" fill="white" transform="translate(117.438 161.309)"/>
</clipPath>
<clipPath id="clip4_70_15190">
<rect width="43.65" height="43.65" fill="white" transform="translate(269.175 395.148)"/>
</clipPath>
<clipPath id="clip5_70_15190">
<rect width="43.65" height="43.65" fill="white" transform="translate(266.057 14.7697)"/>
</clipPath>
</defs>
</svg>
